# xmcd
#
# Track frame offsets: 
#        150
#        19977
#        40080
#        54190
#        74947
#        97402
#        117305
#        134710
#        152857
#        170827
#        190785
#
# Disc length: 2754 seconds
#
# Revision: 2
# Processed by: cddbd v1.5.2PL0 Copyright (c) Steve Scherf et al.
# Submitted via: ExactAudioCopy v1.0b3
#
DISCID=aa0ac00b
DTITLE=AAVV - Original Soundtrack Judgement Night
DYEAR=1993
DGENRE=Soundtrack
TTITLE0=Helmet and House Of Pain - Just Another Victim
TTITLE1=Teenage Fanclub and De La Soul - Fallin'
TTITLE2=Living Colour and Run Dmc  - Me Myself and My Microphone
TTITLE3=Biohazard and Onyx - Judgement Night
TTITLE4=Slayer and Ice-T - Disorder
TTITLE5=Faith No More and Boo-Yaa T.R.I.B.E. - Another Body Murdered
TTITLE6=Sonic Youth and Cypress Hill - I Love You Mary Jane
TTITLE7=Mudhoney and Sir Mix-A-Lot - Freakmomma
TTITLE8=Dinosaur Jr. and Del The Funky Homosapien - Missing Link
TTITLE9=Therapy and Fatal - Come And Die
TTITLE10=Pearl Jam and Cypress Hill - Real Thing
EXTD=
EXTT0=
EXTT1=
EXTT2=
EXTT3=
EXTT4=
EXTT5=
EXTT6=
EXTT7=
EXTT8=
EXTT9=
EXTT10=
PLAYORDER=
